<svg xmlns="http://www.w3.org/2000/svg" viewBox="0 0 192 192" width="192" height="192">
  <defs>
    <linearGradient id="grad" x1="0%" y1="0%" x2="100%" y2="100%">
      <stop offset="0%" style="stop-color:#4F46E5;stop-opacity:1" />
      <stop offset="100%" style="stop-color:#06B6D4;stop-opacity:1" />
    </linearGradient>
  </defs>
  
  <!-- Background -->
  <rect width="192" height="192" rx="24" fill="url(#grad)"/>
  
  <!-- Brain icon simplified -->
  <g transform="translate(48, 48)">
    <!-- Brain outline -->
    <path d="M48,24 C48,11 39,0 28,0 C17,0 8,11 8,24 C8,28 9,32 11,35 C4,37 0,43 0,50 C0,58 6,64 13,64 C14,64 15,64 16,63 C19,70 26,76 35,76 C44,76 51,70 54,63 C55,64 56,64 57,64 C64,64 70,58 70,50 C70,43 66,37 59,35 C61,32 62,28 62,24 C62,11 53,0 42,0 C31,0 22,11 22,24" 
          fill="none" stroke="white" stroke-width="4" stroke-linecap="round"/>
    
    <!-- Brain details -->
    <circle cx="25" cy="30" r="3" fill="white" opacity="0.8"/>
    <circle cx="45" cy="30" r="3" fill="white" opacity="0.8"/>
    <path d="M20,45 Q35,50 50,45" fill="none" stroke="white" stroke-width="3" stroke-linecap="round" opacity="0.8"/>
  </g>
  
  <!-- Text -->
  <text x="96" y="160" font-family="Arial, sans-serif" font-size="24" font-weight="bold" fill="white" text-anchor="middle">
    EduAI
  </text>
</svg>
